<svg width="176" height="40" viewBox="0 0 176 40" fill="none" xmlns="http://www.w3.org/2000/svg">
<path d="M95.6189 8.60254C89.4139 8.60254 84.3818 13.7062 84.3818 20.0005C84.3818 26.2949 89.4115 31.3985 95.6189 31.3985C101.824 31.3985 106.856 26.2949 106.856 20.0005C106.856 13.7062 101.826 8.60254 95.6189 8.60254ZM95.6189 12.7369C99.4185 12.7369 102.509 15.9948 102.509 20.0005C102.509 24.0063 99.4185 27.2642 95.6189 27.2642C91.8193 27.2642 88.7287 24.0063 88.7287 20.0005C88.7287 15.9948 91.8193 12.7369 95.6189 12.7369Z" fill="#292D45"/>
<path d="M67.8574 9.09473H50.9531V12.8599H57.446V30.969H61.5478V12.8599H67.8574V9.09473Z" fill="#292D45"/>
<path d="M71.5943 9.09473V12.8599H77.7351V23.441C77.7351 25.713 75.8888 27.561 73.619 27.561C71.3492 27.561 69.503 25.713 69.503 23.441V22.3003H65.6748V23.441C65.6748 27.8349 69.2317 31.3953 73.6214 31.3953C78.0087 31.3953 81.568 27.8349 81.568 23.441V9.09473H71.5943Z" fill="#292D45"/>
<path d="M145.989 12.8603V9.09277H130.251L130.108 9.09516V30.9693H145.989V27.2041H134.21V21.7505H144.264V17.9853H134.21V12.8603H145.989Z" fill="#292D45"/>
<path d="M14.5338 19.8044L17.7101 9.09473L20.8839 19.8044H14.5338ZM24.191 30.9666H28.2928L21.8118 9.09473H17.7101H13.6059L7.12256 30.9666H11.2267L13.418 23.5696H21.9998L24.191 30.9666Z" fill="#292D45"/>
<path d="M153.191 12.9266H161.523C163.046 12.9266 164.283 14.165 164.283 15.6892C164.283 17.2133 163.046 18.4517 161.523 18.4517H153.193L153.191 12.9266ZM161.732 22.2764C165.273 22.1645 168.111 19.2614 168.111 15.6915C168.111 12.0478 165.161 9.09473 161.521 9.09473H149.251L149.256 30.969H153.193L153.191 22.286L161.732 22.2764Z" fill="#292D45"/>
<path d="M161.807 22.2859L164.434 30.9665H168.707L166.078 22.2764H161.803" fill="#292D45"/>
<path d="M34.2203 12.9266H42.5499C44.0726 12.9266 45.3098 14.165 45.3098 15.6892C45.3098 17.2133 44.0726 18.4517 42.5499 18.4517H34.2203V12.9266ZM42.7616 22.2764C46.3019 22.1645 49.1403 19.2614 49.1403 15.6915C49.1403 12.0478 46.1901 9.09473 42.5499 9.09473H30.2803L30.285 30.969H34.2226L34.2203 22.286L42.7616 22.2764Z" fill="#292D45"/>
<path d="M42.8397 22.2859L45.4663 30.9665H49.737L47.108 22.2764H42.8325" fill="#292D45"/>
<path d="M127.042 13.5415V8.99512L113.726 15.4753V9.09514H109.764V30.9695H113.726V24.5894L127.042 31.0695V26.5208L113.726 20.0407V20.024L127.042 13.5415Z" fill="#292D45"/>
</svg>
