<svg width="24" height="24" viewBox="0 0 24 24" fill="none" xmlns="http://www.w3.org/2000/svg">
<path fill-rule="evenodd" clip-rule="evenodd" d="M6 5C5.73478 5 5.48043 5.10536 5.29289 5.29289C5.10536 5.48043 5 5.73478 5 6V18C5 18.2652 5.10536 18.5196 5.29289 18.7071C5.48043 18.8946 5.73478 19 6 19H18C18.2652 19 18.5196 18.8946 18.7071 18.7071C18.8946 18.5196 19 18.2652 19 18V8.41421L15.5858 5H6ZM3.87868 3.87868C4.44129 3.31607 5.20435 3 6 3H16C16.2652 3 16.5196 3.10536 16.7071 3.29289L20.7071 7.29289C20.8946 7.48043 21 7.73478 21 8V18C21 18.7957 20.6839 19.5587 20.1213 20.1213C19.5587 20.6839 18.7957 21 18 21H6C5.20435 21 4.44129 20.6839 3.87868 20.1213C3.31607 19.5587 3 18.7956 3 18V6C3 5.20435 3.31607 4.44129 3.87868 3.87868Z" fill="#8E91A0"/>
<path fill-rule="evenodd" clip-rule="evenodd" d="M12 13C11.4477 13 11 13.4477 11 14C11 14.5523 11.4477 15 12 15C12.5523 15 13 14.5523 13 14C13 13.4477 12.5523 13 12 13ZM9 14C9 12.3431 10.3431 11 12 11C13.6569 11 15 12.3431 15 14C15 15.6569 13.6569 17 12 17C10.3431 17 9 15.6569 9 14Z" fill="#8E91A0"/>
<path fill-rule="evenodd" clip-rule="evenodd" d="M8 3C8.55228 3 9 3.44772 9 4V7H13V4C13 3.44772 13.4477 3 14 3C14.5523 3 15 3.44772 15 4V8C15 8.55228 14.5523 9 14 9H8C7.44772 9 7 8.55228 7 8V4C7 3.44772 7.44772 3 8 3Z" fill="#8E91A0"/>
</svg>
